<svg width="24" height="24" viewBox="0 0 24 24" fill="none"
  xmlns="http://www.w3.org/2000/svg">
  <rect width="24" height="24" rx="4" fill="black"/>
  <path d="M6.58095 17.144C5.84895 17.144 5.20095 16.982 4.63695 16.658C4.07295 16.334 3.62895 15.896 3.30495 15.344C2.99295 14.78 2.83695 14.15 2.83695 13.454C2.83695 12.77 3.00495 12.146 3.34095 11.582C3.67695 11.018 4.12695 10.568 4.69095 10.232C5.26695 9.896 5.90295 9.728 6.59895 9.728C7.43895 9.728 8.14095 9.974 8.70495 10.466C9.28095 10.958 9.69495 11.6 9.94695 12.392L3.93495 14.714C4.16295 15.206 4.50495 15.614 4.96095 15.938C5.42895 16.25 5.97495 16.406 6.59895 16.406C6.98295 16.406 7.34895 16.334 7.69695 16.19C8.05695 16.046 8.37495 15.86 8.65095 15.632L9.08295 16.244C8.74695 16.508 8.35695 16.724 7.91295 16.892C7.48095 17.06 7.03695 17.144 6.58095 17.144ZM3.66495 13.418C3.66495 13.646 3.68895 13.868 3.73695 14.084L8.92095 12.05C8.70495 11.618 8.39895 11.246 8.00295 10.934C7.60695 10.61 7.12095 10.448 6.54495 10.448C6.00495 10.448 5.51895 10.58 5.08695 10.844C4.65495 11.108 4.30695 11.462 4.04295 11.906C3.79095 12.35 3.66495 12.854 3.66495 13.418ZM15.6404 4.22C16.1204 4.22 16.5944 4.292 17.0624 4.436C17.5424 4.568 17.9744 4.784 18.3584 5.084C18.7544 5.372 19.0724 5.744 19.3124 6.2C19.5524 6.656 19.6724 7.202 19.6724 7.838C19.6724 8.558 19.4984 9.242 19.1504 9.89C18.8144 10.538 18.2504 11.018 17.4584 11.33L20.9144 17H19.8884L16.5404 11.564C16.2404 11.612 15.9224 11.636 15.5864 11.636H13.6064V17H12.7244V4.22H15.6404ZM15.5324 10.79C16.3844 10.79 17.0444 10.64 17.5124 10.34C17.9804 10.028 18.3044 9.65 18.4844 9.206C18.6764 8.75 18.7724 8.306 18.7724 7.874C18.7724 7.37 18.6464 6.908 18.3944 6.488C18.1544 6.056 17.8064 5.714 17.3504 5.462C16.9064 5.198 16.3784 5.066 15.7664 5.066H13.6064V10.79H15.5324Z" fill="white"/>
</svg>
