<svg width="200" height="200" viewBox="0 0 200 200" fill="none"
  xmlns="http://www.w3.org/2000/svg">
  <rect width="200" height="200" fill="#C4B796"/>
  <path d="M120 119.9L147.791 116.487C149.984 116.218 151.98 117.778 152.249 119.97L155.661 147.761L123.9 151.661L120 119.9Z" fill="#39423D"/>
  <rect x="84" y="120" width="32" height="32" fill="#39423D"/>
  <rect x="48" y="120" width="32" height="32" fill="#39423D"/>
  <path d="M84 84H112C114.209 84 116 85.7909 116 88V112C116 114.209 114.209 116 112 116H84V84Z" fill="#39423D"/>
  <rect x="48" y="84" width="32" height="32" fill="#39423D"/>
  <path d="M120 48H148C150.209 48 152 49.7909 152 52V80H120V48Z" fill="#39423D"/>
  <rect x="84" y="48" width="32" height="32" fill="#39423D"/>
  <rect x="48" y="48" width="32" height="32" fill="#39423D"/>
</svg>
